<svg width="20" height="20" viewBox="0 0 20 20" fill="none" xmlns="http://www.w3.org/2000/svg">
<path fill-rule="evenodd" clip-rule="evenodd" d="M5 4.16691C4.53976 4.16691 4.16667 4.54001 4.16667 5.00024V6.66691C4.16667 7.12715 4.53976 7.50024 5 7.50024H15C15.4602 7.50024 15.8333 7.12715 15.8333 6.66691V5.00024C15.8333 4.54001 15.4602 4.16691 15 4.16691H5ZM2.5 5.00024C2.5 3.61953 3.61929 2.50024 5 2.50024H15C16.3807 2.50024 17.5 3.61953 17.5 5.00024V6.66691C17.5 8.04762 16.3807 9.16691 15 9.16691H5C3.61929 9.16691 2.5 8.04762 2.5 6.66691V5.00024Z" fill="black"/>
<path fill-rule="evenodd" clip-rule="evenodd" d="M5 12.5C4.53976 12.5 4.16667 12.8731 4.16667 13.3333V15C4.16667 15.4602 4.53976 15.8333 5 15.8333H15C15.4602 15.8333 15.8333 15.4602 15.8333 15V13.3333C15.8333 12.8731 15.4602 12.5 15 12.5H5ZM2.5 13.3333C2.5 11.9526 3.61929 10.8333 5 10.8333H15C16.3807 10.8333 17.5 11.9526 17.5 13.3333V15C17.5 16.3807 16.3807 17.5 15 17.5H5C3.61929 17.5 2.5 16.3807 2.5 15V13.3333Z" fill="black"/>
</svg>
