<svg width="20" height="16" viewBox="0 0 20 16" fill="none" xmlns="http://www.w3.org/2000/svg">
<path fill-rule="evenodd" clip-rule="evenodd" d="M3.00011 2C2.44782 2 2.00011 2.44772 2.00011 3V13C2.00011 13.5523 2.44782 14 3.00011 14H17.0001C17.5524 14 18.0001 13.5523 18.0001 13V3C18.0001 2.44772 17.5524 2 17.0001 2H3.00011ZM0.000106212 3C0.000106212 1.34315 1.34325 0 3.00011 0H17.0001C18.657 0 20.0001 1.34315 20.0001 3V13C20.0001 14.6569 18.657 16 17.0001 16H3.00011C1.34325 16 0.000106212 14.6569 0.000106212 13V3Z" fill="black"/>
<path fill-rule="evenodd" clip-rule="evenodd" d="M0.168056 2.44526C0.474408 1.98573 1.09528 1.86156 1.55481 2.16791L10.0001 7.79811L18.4454 2.16791C18.9049 1.86156 19.5258 1.98573 19.8322 2.44526C20.1385 2.90479 20.0143 3.52566 19.5548 3.83201L10.5548 9.83201C10.2189 10.0559 9.78131 10.0559 9.44541 9.83201L0.445406 3.83201C-0.0141227 3.52566 -0.138296 2.90479 0.168056 2.44526Z" fill="black"/>
</svg>
